<svg xmlns="http://www.w3.org/2000/svg" viewBox="0 0 117.74 117.74"><defs><style>.cls-1{fill:#d7d7d7;}</style></defs><title>Ресурс 1</title><g id="Слой_2" data-name="Слой 2"><g id="Режим_изоляции" data-name="Режим изоляции"><path class="cls-1" d="M32.55,42.06a28.64,28.64,0,0,0,8.27,10.09l.89.68.83.54c.51.34,1,.62,1.32.81L45,54.8l-1.08-.71c-.36-.22-.77-.53-1.25-.9s-1-.8-1.62-1.31a27,27,0,0,1-3.86-4.06,30.5,30.5,0,0,1-3.71-6.19,28.28,28.28,0,0,1-2.26-8.17,27.13,27.13,0,0,1-.13-4.61c.07-.8.08-1.64.19-2.43l.39-2.37a28.81,28.81,0,0,1,3.81-9.25A28.47,28.47,0,0,1,51.73,2.7a29.9,29.9,0,0,1,5-.93l2.47-.14,2.54.09A28.89,28.89,0,0,1,70.83,4,28.31,28.31,0,0,1,78,8.53a29.24,29.24,0,0,1,4.86,5.33,29.82,29.82,0,0,1,1.63,2.55c.45.82.81,1.61,1.16,2.3l.78,1.93c.24.56.35,1.07.49,1.46l.38,1.23L87,22.08a27.1,27.1,0,0,0-1-3.51c-.32-.72-.64-1.54-1-2.4a30.38,30.38,0,0,0-1.52-2.69,26.53,26.53,0,0,0-4.74-5.71,29.47,29.47,0,0,0-7.3-5A28.23,28.23,0,0,0,61.81.14L59.27,0c-.94,0-1.78.07-2.68.1A28.41,28.41,0,0,0,51.27,1,29.46,29.46,0,0,0,30.1,23.75l-.37,2.57c-.11.84-.08,1.65-.12,2.46a28.43,28.43,0,0,0,.31,4.85A29.47,29.47,0,0,0,32.55,42.06Z"/><path class="cls-1" d="M65.43,11a20.42,20.42,0,0,1,5.37,2.61A22.26,22.26,0,0,1,74.63,17,20,20,0,0,1,77,20.2a21.8,21.8,0,0,1,1.17,2.29l.36.84-.27-.88a16.89,16.89,0,0,0-1-2.42,20.45,20.45,0,0,0-2.12-3.47,20.24,20.24,0,0,0-3.73-3.79,20,20,0,0,0-5.55-3l-1.64-.52c-.57-.13-1.14-.27-1.73-.38s-1.22-.19-1.82-.23-1.14-.09-1.82-.07a20.16,20.16,0,0,0-7.5,1.41A20.87,20.87,0,0,0,40,20.51a20.83,20.83,0,0,0-1.93,7.4A20.37,20.37,0,0,0,45,44.71a21.12,21.12,0,0,0,3.32,2.35,12.71,12.71,0,0,0,1.33.69,9.73,9.73,0,0,0,1,.43l.86.33-.82-.42a20.34,20.34,0,0,1-2.21-1.33,20.64,20.64,0,0,1-3-2.54,21.85,21.85,0,0,1-3.09-4.06,20.53,20.53,0,0,1-2.22-5.54A19.84,19.84,0,0,1,39.67,28a20.16,20.16,0,0,1,1.92-6.73A19.83,19.83,0,0,1,58.87,10.11c.51,0,1.17,0,1.73,0s1.1.11,1.65.16l1.62.29Z"/><path class="cls-1" d="M85.19,75.68A28.68,28.68,0,0,0,76.92,65.6L76,64.92l-.83-.54c-.51-.34-1-.62-1.32-.81l-1.13-.63,1.08.71c.36.22.77.53,1.25.9s1,.8,1.62,1.31a27,27,0,0,1,3.86,4.06,30.51,30.51,0,0,1,3.71,6.19,28.29,28.29,0,0,1,2.26,8.17,27.15,27.15,0,0,1,.13,4.61c-.07.8-.08,1.64-.19,2.43l-.39,2.37a28.78,28.78,0,0,1-3.82,9.25A28.47,28.47,0,0,1,66,115a29.92,29.92,0,0,1-5,.93l-2.47.14L56,116a28.89,28.89,0,0,1-9.09-2.28,28.33,28.33,0,0,1-7.17-4.53,29.23,29.23,0,0,1-4.86-5.33,29.63,29.63,0,0,1-1.63-2.55c-.45-.82-.81-1.61-1.16-2.3l-.78-1.93c-.24-.56-.35-1.07-.49-1.46l-.38-1.23.29,1.26a27.1,27.1,0,0,0,1,3.51c.32.72.64,1.54,1,2.4a30.05,30.05,0,0,0,1.52,2.69A26.56,26.56,0,0,0,39.07,110a29.47,29.47,0,0,0,7.3,5,28.23,28.23,0,0,0,9.56,2.66l2.54.14c.94,0,1.78-.07,2.68-.1a28.42,28.42,0,0,0,5.31-.93A29.46,29.46,0,0,0,87.64,94L88,91.42c.11-.85.08-1.65.13-2.46a28.44,28.44,0,0,0-.31-4.85A29.47,29.47,0,0,0,85.19,75.68Z"/><path class="cls-1" d="M76.15,96.48a19.83,19.83,0,0,1-17.28,11.15c-.51,0-1.17,0-1.73,0s-1.1-.11-1.65-.16l-1.62-.29-1.55-.42a20.37,20.37,0,0,1-5.37-2.61,22.28,22.28,0,0,1-3.82-3.37,20,20,0,0,1-2.33-3.21,21.76,21.76,0,0,1-1.17-2.29l-.36-.84.27.88a16.88,16.88,0,0,0,1,2.42,20.47,20.47,0,0,0,2.12,3.47A20.26,20.26,0,0,0,46.33,105a20,20,0,0,0,5.55,3l1.64.52c.57.13,1.14.27,1.73.38s1.22.19,1.82.23,1.13.09,1.82.07a20.16,20.16,0,0,0,7.5-1.41A20.88,20.88,0,0,0,77.72,97.23a20.83,20.83,0,0,0,1.93-7.4A20.36,20.36,0,0,0,72.78,73a21.08,21.08,0,0,0-3.32-2.35A12.62,12.62,0,0,0,68.12,70a9.75,9.75,0,0,0-1-.44l-.86-.33.82.42A20.36,20.36,0,0,1,69.27,71a20.63,20.63,0,0,1,3,2.54,21.76,21.76,0,0,1,3.09,4.06,20.5,20.5,0,0,1,2.22,5.54,19.84,19.84,0,0,1,.44,6.63A20.14,20.14,0,0,1,76.15,96.48Z"/><path class="cls-1" d="M117.64,56.59a28.46,28.46,0,0,0-.93-5.31A29.46,29.46,0,0,0,94,30.1l-2.58-.37c-.84-.11-1.65-.08-2.46-.12a28.45,28.45,0,0,0-4.85.31,29.46,29.46,0,0,0-8.42,2.64,28.65,28.65,0,0,0-10.09,8.27l-.68.89-.54.83c-.34.51-.61.95-.81,1.32L62.94,45l.71-1.08c.22-.36.53-.77.9-1.25s.8-1,1.31-1.62a27,27,0,0,1,4.06-3.86,30.51,30.51,0,0,1,6.19-3.71,28.31,28.31,0,0,1,8.17-2.26,27.19,27.19,0,0,1,4.61-.13c.8.07,1.64.08,2.43.19l2.37.39a28.82,28.82,0,0,1,9.25,3.82A28.47,28.47,0,0,1,115,51.73a30,30,0,0,1,.93,5q.07,1.24.14,2.47T116,61.73a28.87,28.87,0,0,1-2.27,9.09A28.32,28.32,0,0,1,109.21,78a29.21,29.21,0,0,1-5.33,4.86,29.6,29.6,0,0,1-2.55,1.63c-.82.45-1.61.81-2.3,1.17l-1.93.78c-.56.24-1.07.35-1.46.49l-1.23.38L95.66,87a27.27,27.27,0,0,0,3.51-1c.72-.32,1.54-.64,2.4-1a30.28,30.28,0,0,0,2.69-1.52A26.55,26.55,0,0,0,110,78.67a29.47,29.47,0,0,0,5-7.3,28.23,28.23,0,0,0,2.66-9.56l.14-2.54C117.72,58.33,117.67,57.49,117.64,56.59Z"/><path class="cls-1" d="M102.29,45.9a19.77,19.77,0,0,1,5.33,13c0,.51,0,1.17,0,1.73s-.12,1.1-.16,1.65l-.29,1.62-.42,1.55a20.37,20.37,0,0,1-2.61,5.37,22.3,22.3,0,0,1-3.37,3.82A20,20,0,0,1,97.54,77a21.67,21.67,0,0,1-2.29,1.17l-.84.36.88-.27a16.87,16.87,0,0,0,2.42-1,20.51,20.51,0,0,0,3.47-2.12A20.24,20.24,0,0,0,105,71.41a20,20,0,0,0,3-5.55l.52-1.64c.13-.57.27-1.14.38-1.73s.19-1.22.23-1.82.09-1.14.07-1.82a20.16,20.16,0,0,0-1.41-7.5A20.87,20.87,0,0,0,97.23,40a20.83,20.83,0,0,0-7.41-1.93A20.36,20.36,0,0,0,73,45a21.11,21.11,0,0,0-2.35,3.32A12.76,12.76,0,0,0,70,49.62a9.75,9.75,0,0,0-.43,1l-.33.86.42-.82A20.31,20.31,0,0,1,71,48.47a20.6,20.6,0,0,1,2.54-3,21.75,21.75,0,0,1,4.06-3.09,20.5,20.5,0,0,1,5.54-2.22,19.85,19.85,0,0,1,6.63-.44,20.17,20.17,0,0,1,6.73,1.92A19.52,19.52,0,0,1,102.29,45.9Z"/><path class="cls-1" d="M42.06,85.19a28.63,28.63,0,0,0,10.09-8.27l.68-.89.54-.83c.34-.51.62-.95.81-1.32l.63-1.13-.71,1.08c-.22.36-.53.77-.9,1.25s-.79,1-1.31,1.62a27,27,0,0,1-4.06,3.86,30.54,30.54,0,0,1-6.19,3.71,28.33,28.33,0,0,1-8.17,2.26,27.18,27.18,0,0,1-4.6.13c-.8-.07-1.64-.08-2.43-.19l-2.37-.39a28.8,28.8,0,0,1-9.25-3.82A28.47,28.47,0,0,1,2.7,66a30,30,0,0,1-.93-5q-.07-1.24-.14-2.47T1.72,56A28.88,28.88,0,0,1,4,46.91a28.33,28.33,0,0,1,4.53-7.17,29.2,29.2,0,0,1,5.33-4.86,29.74,29.74,0,0,1,2.55-1.63c.82-.45,1.61-.81,2.3-1.16l1.93-.78c.56-.24,1.07-.35,1.46-.49l1.23-.38-1.26.29a27.16,27.16,0,0,0-3.51,1c-.72.32-1.54.64-2.4,1a30.27,30.27,0,0,0-2.69,1.52,26.54,26.54,0,0,0-5.71,4.74,29.47,29.47,0,0,0-5,7.3A28.23,28.23,0,0,0,.14,55.93L0,58.47c0,.94.07,1.78.1,2.68A28.38,28.38,0,0,0,1,66.47,29.46,29.46,0,0,0,23.75,87.64l2.57.37c.85.11,1.65.08,2.46.13a28.5,28.5,0,0,0,4.85-.31A29.48,29.48,0,0,0,42.06,85.19Z"/><path class="cls-1" d="M15.45,71.84a19.76,19.76,0,0,1-5.33-13c0-.51,0-1.17,0-1.73s.12-1.1.16-1.65l.29-1.62L11,52.31a20.37,20.37,0,0,1,2.61-5.37A22.29,22.29,0,0,1,17,43.11a20,20,0,0,1,3.21-2.33,21.69,21.69,0,0,1,2.29-1.17l.84-.36-.88.27a16.89,16.89,0,0,0-2.42,1,20.55,20.55,0,0,0-3.47,2.12,20.27,20.27,0,0,0-3.79,3.73,20,20,0,0,0-3,5.55l-.52,1.64c-.13.57-.27,1.14-.38,1.73s-.19,1.22-.23,1.82-.09,1.14-.07,1.82a20.16,20.16,0,0,0,1.41,7.5A20.87,20.87,0,0,0,20.51,77.72a20.83,20.83,0,0,0,7.41,1.93,20.46,20.46,0,0,0,12.79-3.37,19.88,19.88,0,0,0,4-3.5,21.08,21.08,0,0,0,2.35-3.32,12.79,12.79,0,0,0,.69-1.34,9.75,9.75,0,0,0,.43-1l.33-.86-.42.82a21.64,21.64,0,0,1-3.87,5.25,21.8,21.8,0,0,1-4.06,3.09,20.53,20.53,0,0,1-5.54,2.22,19.87,19.87,0,0,1-6.63.44,20.16,20.16,0,0,1-6.73-1.92A19.52,19.52,0,0,1,15.45,71.84Z"/></g></g></svg>